<?xml version="1.0" encoding="utf-8"?>
<!-- Generator: Adobe Illustrator 16.0.4, SVG Export Plug-In . SVG Version: 6.00 Build 0)  -->
<!DOCTYPE svg PUBLIC "-//W3C//DTD SVG 1.1//EN" "http://www.w3.org/Graphics/SVG/1.1/DTD/svg11.dtd">
<svg version="1.1" id="Layer_2" xmlns="http://www.w3.org/2000/svg" xmlns:xlink="http://www.w3.org/1999/xlink" x="0px" y="0px"
	 width="537.5px" height="125px" viewBox="0 0 537.5 125" enable-background="new 0 0 537.5 125" xml:space="preserve">
<g>
	<path fill="#06182C" d="M93.298,116.827H67.349v-10.649c-5.7,7.5-13.949,11.699-24.299,11.699
		c-22.799,0-37.798-16.799-37.798-41.85c0-24.747,14.849-41.097,37.198-41.097c10.649,0,19.199,4.199,24.899,11.699V5.531h25.949
		V116.827z M67.349,76.629c0-12.449-7.2-20.999-17.999-20.999c-10.8,0-18,8.55-18.149,20.999c0.15,12.449,7.35,21.148,18.149,21.148
		C60.149,97.777,67.349,89.078,67.349,76.629z"/>
	<path fill="#06182C" d="M131.799,50.68c5.55-9.449,14.7-14.699,26.249-14.85v23.399c-15-1.351-24.899,5.699-26.249,17.1v41.548
		H105.85V37.03h25.949V50.68z"/>
	<path fill="#06182C" d="M171.248,117.877V37.03h25.799v80.847H171.248z"/>
	<path fill="#06182C" d="M235.846,117.877l-30.45-80.847h26.699l17.399,57.146l17.549-57.146h25.799l-30.448,80.847H235.846z"/>
	<path fill="#06182C" d="M375.745,83.527h-56.848c2.55,9.601,9.448,15,19.049,15c7.05,0,13.948-2.851,19.35-8.25l13.649,13.35
		c-8.25,9-20.399,14.25-35.249,14.25c-26.398,0-42.898-16.5-42.898-41.1c0-25.048,17.101-41.548,42.148-41.548
		C363.445,35.229,377.545,53.979,375.745,83.527z M350.846,69.578c0-9.899-6.3-16.349-15.6-16.349
		c-8.999,0-15.149,6.6-16.799,16.349H350.846z"/>
</g>
<g>
	<g>
		<path fill="#4091EF" d="M492.398,63.879v52.798H467.05v-9.3c-5.25,6.898-13.8,10.5-24.749,10.5
			c-17.249,0-27.749-10.5-27.749-25.35c0-15.299,10.949-24.299,31.049-24.448h21.3v-1.2c0-7.95-5.25-12.75-15.749-12.75
			c-6.75,0-15.601,2.4-24.149,6.75l-7.35-17.1c12.6-5.85,23.999-9.149,37.499-9.149C479.35,34.63,492.249,45.58,492.398,63.879z
			 M466.899,89.229v-7.199h-16.35c-7.8,0-11.7,2.699-11.7,8.699c0,5.85,4.2,9.6,11.399,9.6
			C458.35,100.327,465.25,95.827,466.899,89.229z"/>
		<path fill="#4091EF" d="M506.2,116.677V35.83h25.799v80.847H506.2z"/>
	</g>
</g>
<g transform="rotate(0 394.8075091267747,105.89249468164718)">
	<path fill="#0064C2" d="M385.244,98.488c0,0,4.001-4.5,8.751-4.5c4.083,3.334,3.499,8.5,3.499,8.5
		C392.994,97.738,385.244,98.488,385.244,98.488z"/>
	<path fill="#003C74" d="M383.613,110.473c0,0-1.896-5.715,0.479-9.828c4.93-1.869,9.111,1.22,9.111,1.22
		C386.839,103.386,383.613,110.473,383.613,110.473z"/>
	<path fill="#0064C2" d="M393.177,117.877c0,0-5.896-1.215-8.271-5.328c0.846-5.203,5.61-7.281,5.61-7.281
		C388.652,111.54,393.177,117.877,393.177,117.877z"/>
	<path fill="#138DFF" d="M404.371,113.297c0,0-4.001,4.5-8.751,4.5c-4.083-3.334-3.5-8.5-3.5-8.5
		C396.621,114.047,404.371,113.297,404.371,113.297z"/>
	<path fill="#61B3FF" d="M406.002,101.312c0,0,1.896,5.715-0.479,9.828c-4.931,1.868-9.111-1.22-9.111-1.22
		C402.775,108.398,406.002,101.312,406.002,101.312z"/>
	<path fill="#138DFF" d="M396.438,93.908c0,0,5.898,1.215,8.273,5.328c-0.847,5.203-5.611,7.281-5.611,7.281
		C400.961,100.245,396.438,93.908,396.438,93.908z"/>
</g>
</svg>
